<?xml version="1.0" encoding="utf-8"?>
<!-- Generator: Adobe Illustrator 25.2.0, SVG Export Plug-In . SVG Version: 6.00 Build 0)  -->
<svg version="1.1" id="Layer_1" xmlns="http://www.w3.org/2000/svg" xmlns:xlink="http://www.w3.org/1999/xlink" x="0px" y="0px"
	 viewBox="0 0 130.2 36" style="enable-background:new 0 0 130.2 36;" xml:space="preserve">
<style type="text/css">
	.st0{display:none;}
	.st1{fill:#FFFFFF;}
	.st2{fill:none;}
	.st3{fill-rule:evenodd;clip-rule:evenodd;fill:url(#SVGID_1_);}
	.st4{fill-rule:evenodd;clip-rule:evenodd;fill:url(#SVGID_2_);}
</style>
<path class="st0" d="M46.7,28.4c-1.5,0-2.9-0.3-4-0.8c-1.2-0.5-2.1-1.3-2.7-2.3c-0.7-1-1-2.2-1-3.7v-0.8h3.7v0.8
	c0,1.2,0.4,2.1,1.1,2.7c0.7,0.6,1.7,0.9,3,0.9s2.2-0.3,2.9-0.8c0.6-0.5,1-1.2,1-2c0-0.5-0.2-1-0.5-1.3s-0.8-0.6-1.4-0.8
	c-0.6-0.2-1.3-0.4-2.1-0.6L46,19.6c-1.4-0.3-2.5-0.7-3.5-1.1c-1-0.5-1.7-1.1-2.2-1.8c-0.5-0.8-0.8-1.7-0.8-2.9s0.3-2.2,0.8-3.1
	c0.6-0.9,1.4-1.5,2.4-2c1-0.7,2.3-0.9,3.7-0.9s2.7,0.2,3.8,0.7s2,1.2,2.6,2.1c0.6,0.9,1,2.1,1,3.6V15H50v-0.8c0-0.8-0.2-1.4-0.5-1.8
	c-0.3-0.5-0.7-0.8-1.2-1s-1.2-0.3-2-0.3c-1.1,0-2,0.2-2.5,0.7c-0.5,0.4-0.8,1-0.8,1.7c0,0.5,0.1,0.9,0.4,1.2
	c0.3,0.3,0.7,0.6,1.2,0.8s1.2,0.4,2,0.6l0.7,0.1c1.4,0.3,2.6,0.7,3.7,1.2c1.1,0.5,1.9,1.1,2.5,1.9s0.9,1.8,0.9,3s-0.3,2.3-0.9,3.2
	c-0.6,0.9-1.5,1.6-2.6,2.1C49.6,28.1,48.3,28.4,46.7,28.4z M56.3,28V14h3.5v1.8h0.5c0.2-0.5,0.7-1,1.3-1.4c0.6-0.5,1.6-0.7,2.8-0.7
	c1.1,0,2,0.3,2.9,0.8c0.8,0.5,1.5,1.2,1.9,2.1c0.5,0.9,0.7,1.9,0.7,3.1V28h-3.6v-8.1c0-1.1-0.3-1.8-0.8-2.4
	c-0.5-0.5-1.2-0.8-2.2-0.8c-1.1,0-1.9,0.4-2.5,1.1s-0.9,1.7-0.9,3V28H56.3z M77.2,28.4c-1,0-1.9-0.2-2.7-0.5
	c-0.8-0.4-1.4-0.9-1.9-1.5c-0.5-0.7-0.7-1.5-0.7-2.5s0.2-1.8,0.7-2.4c0.5-0.7,1.1-1.1,1.9-1.5c0.8-0.3,1.8-0.5,2.8-0.5h3.8v-0.8
	c0-0.7-0.2-1.2-0.6-1.6s-1.1-0.7-2-0.7s-1.5,0.2-2,0.6c-0.4,0.4-0.7,0.9-0.8,1.6l-3.3-1.1c0.2-0.7,0.6-1.4,1.1-2s1.2-1.1,2-1.4
	c0.8-0.4,1.9-0.6,3.1-0.6c1.8,0,3.3,0.5,4.4,1.4s1.6,2.3,1.6,4v5.2c0,0.6,0.3,0.8,0.8,0.8h1.1V28h-2.4c-0.7,0-1.3-0.2-1.7-0.5
	s-0.7-0.8-0.7-1.4l0,0h-0.5c-0.1,0.2-0.2,0.5-0.5,0.9s-0.7,0.7-1.2,1C79,28.3,78.2,28.4,77.2,28.4z M77.8,25.5c1,0,1.8-0.3,2.4-0.8
	c0.6-0.6,1-1.3,1-2.2v-0.3h-3.6c-0.7,0-1.2,0.1-1.6,0.4s-0.6,0.7-0.6,1.2s0.2,0.9,0.6,1.2C76.5,25.4,77.1,25.5,77.8,25.5z
	 M88.4,33.7V14h3.5v1.7h0.5c0.3-0.5,0.8-1,1.5-1.4s1.6-0.7,2.9-0.7c1.1,0,2.2,0.3,3.1,0.8c1,0.5,1.7,1.4,2.3,2.4
	c0.6,1.1,0.9,2.4,0.9,3.9v0.5c0,1.5-0.3,2.8-0.9,3.9s-1.4,1.9-2.3,2.5c-1,0.5-2,0.8-3.1,0.8c-0.8,0-1.6-0.1-2.1-0.3
	c-0.6-0.2-1-0.4-1.4-0.7c-0.3-0.3-0.6-0.6-0.8-1H92v7.3H88.4z M95.7,25.3c1.1,0,2-0.3,2.7-1s1.1-1.8,1.1-3.1v-0.3
	c0-1.4-0.4-2.4-1.1-3.1s-1.6-1.1-2.7-1.1s-2,0.4-2.7,1.1s-1.1,1.7-1.1,3.1v0.3c0,1.4,0.4,2.4,1.1,3.1C93.7,24.9,94.6,25.3,95.7,25.3
	z M104.9,21v-0.5c0-1.5,0.3-2.7,0.9-3.8c0.6-1.1,1.4-1.9,2.3-2.4c1-0.6,2-0.8,3.2-0.8c1.3,0,2.3,0.2,2.9,0.7
	c0.7,0.5,1.1,0.9,1.4,1.4h0.5V14h3.5v16.5c0,1-0.3,1.7-0.8,2.3c-0.6,0.6-1.3,0.9-2.3,0.9h-9.4v-3.1h8.1c0.5,0,0.8-0.3,0.8-0.8V26
	h-0.5c-0.2,0.3-0.5,0.6-0.8,0.9s-0.8,0.6-1.4,0.8c-0.6,0.2-1.3,0.3-2.1,0.3c-1.1,0-2.2-0.3-3.2-0.8c-1-0.6-1.7-1.4-2.3-2.4
	C105.1,23.8,104.9,22.5,104.9,21z M112.3,24.9c1.1,0,2-0.3,2.7-1s1.1-1.7,1.1-2.9v-0.3c0-1.3-0.4-2.3-1.1-2.9c-0.7-0.7-1.6-1-2.7-1
	s-2,0.3-2.7,1s-1.1,1.7-1.1,2.9V21c0,1.3,0.4,2.2,1.1,2.9C110.3,24.6,111.2,24.9,112.3,24.9z M122.7,28V14h3.5v1.6h0.5
	c0.2-0.6,0.5-1,1-1.2c0.5-0.3,1.1-0.4,1.7-0.4h1.7v3.2h-1.8c-0.9,0-1.6,0.2-2.2,0.7s-0.9,1.2-0.9,2.2v8h-3.5V28z M137.1,28.4
	c-1,0-1.9-0.2-2.7-0.5c-0.8-0.4-1.4-0.9-1.9-1.5c-0.5-0.7-0.7-1.5-0.7-2.5s0.2-1.8,0.7-2.4c0.5-0.7,1.1-1.1,1.9-1.5
	c0.8-0.3,1.8-0.5,2.8-0.5h3.8v-0.8c0-0.7-0.2-1.2-0.6-1.6c-0.4-0.4-1.1-0.7-2-0.7s-1.5,0.2-2,0.6c-0.4,0.4-0.7,0.9-0.8,1.6l-3.3-1.1
	c0.2-0.7,0.6-1.4,1.1-2s1.2-1.1,2-1.4c0.8-0.4,1.9-0.6,3.1-0.6c1.8,0,3.3,0.5,4.4,1.4c1.1,0.9,1.6,2.3,1.6,4v5.2
	c0,0.6,0.3,0.8,0.8,0.8h1.1V28H144c-0.7,0-1.3-0.2-1.7-0.5c-0.5-0.3-0.7-0.8-0.7-1.4l0,0h-0.5c-0.1,0.2-0.2,0.5-0.5,0.9
	s-0.7,0.7-1.2,1C138.9,28.3,138.1,28.4,137.1,28.4z M137.7,25.5c1,0,1.8-0.3,2.4-0.8c0.6-0.6,1-1.3,1-2.2v-0.3h-3.6
	c-0.7,0-1.2,0.1-1.6,0.4c-0.4,0.3-0.6,0.7-0.6,1.2s0.2,0.9,0.6,1.2C136.4,25.4,137,25.5,137.7,25.5z M148.2,28V14h3.5v1.5h0.5
	c0.2-0.5,0.6-0.9,1.2-1.2c0.6-0.4,1.3-0.5,2.2-0.5c1,0,1.8,0.2,2.4,0.6c0.6,0.4,1.1,0.9,1.4,1.5h0.5c0.3-0.6,0.8-1.1,1.4-1.5
	c0.6-0.4,1.4-0.6,2.5-0.6c0.9,0,1.7,0.2,2.3,0.6c0.7,0.4,1.3,0.9,1.7,1.7c0.4,0.7,0.6,1.7,0.6,2.8V28H165v-9c0-0.8-0.2-1.3-0.6-1.7
	c-0.4-0.4-1-0.6-1.7-0.6c-0.8,0-1.4,0.3-1.9,0.8c-0.4,0.5-0.7,1.2-0.7,2.2V28h-3.6v-9c0-0.8-0.2-1.3-0.6-1.7c-0.4-0.4-1-0.6-1.7-0.6
	c-0.8,0-1.4,0.3-1.9,0.8c-0.4,0.5-0.7,1.2-0.7,2.2V28H148.2z"/>
<g>
	<path class="st1" d="M41.7,8.7h3.8v18.9h-4.3V13.3l-3.3,0.9l-1.1-3.7L41.7,8.7z"/>
	<path class="st1" d="M47.7,8.7h12.4v3.6L54,27.6h-4.6l5.9-14.7h-7.6C47.7,12.9,47.7,8.7,47.7,8.7z"/>
	<path class="st1" d="M63.4,27.3c-1-1-1-2.6,0-3.6s2.6-1,3.6,0s1,2.6,0,3.6S64.4,28.3,63.4,27.3z"/>
	<path class="st1" d="M87.4,22.1c0,1.6-0.6,3-1.8,4c-1.2,1-2.6,1.5-4.3,1.5h-7.9V8.7h7.4c1.7,0,3.1,0.5,4.2,1.5
		c1.2,1,1.7,2.3,1.7,3.9c0,1.5-0.5,2.8-1.6,3.7C86.6,18.8,87.4,20.2,87.4,22.1z M77.6,12.8v3.3h3.1c1,0,1.6-0.7,1.6-1.7
		s-0.7-1.7-1.6-1.7L77.6,12.8L77.6,12.8z M81.3,23.6c1.1,0,1.8-0.7,1.8-1.8S82.3,20,81.3,20h-3.6v3.6H81.3z"/>
	<path class="st1" d="M89.4,27.6V7.9h4v19.7H89.4z"/>
	<path class="st1" d="M102.9,28c-2,0-3.7-0.7-5.1-2.1s-2.1-3.1-2.1-5.1s0.7-3.7,2.1-5c1.4-1.4,3.1-2.1,5.1-2.1s3.7,0.7,5.1,2.1
		s2.1,3,2.1,5s-0.7,3.7-2.1,5.1S104.9,28,102.9,28z M102.9,24.1c0.9,0,1.6-0.3,2.2-0.9s0.9-1.3,0.9-2.3c0-0.9-0.3-1.7-0.9-2.3
		c-0.6-0.6-1.3-0.9-2.2-0.9s-1.6,0.3-2.2,0.9s-0.9,1.4-0.9,2.3s0.3,1.7,0.9,2.3S102,24.1,102.9,24.1z"/>
	<path class="st1" d="M122.2,14.1h3.9V27c0,2.1-0.7,3.7-2.1,4.8s-3.1,1.6-5,1.6c-3.1,0-5.2-1.1-6.4-3.3l3.5-2
		c0.6,1.1,1.6,1.7,3.1,1.7c1.9,0,3-1,3-2.9v-1.2c-0.9,1.2-2.2,1.8-3.9,1.8c-1.9,0-3.5-0.7-4.8-2s-1.9-3-1.9-4.9s0.6-3.5,1.9-4.8
		s2.9-2,4.8-2c1.7,0,3,0.6,3.9,1.8C122.2,15.6,122.2,14.1,122.2,14.1z M119,23.7c0.9,0,1.7-0.3,2.3-0.9c0.6-0.6,0.9-1.3,0.9-2.3
		c0-0.9-0.3-1.7-0.9-2.3c-0.6-0.6-1.4-0.9-2.3-0.9s-1.7,0.3-2.3,0.9c-0.6,0.6-0.9,1.3-0.9,2.3c0,0.9,0.3,1.7,0.9,2.3
		C117.3,23.5,118,23.7,119,23.7z"/>
</g>
<rect x="30.6" y="-2.4" class="st2" width="14.6" height="13.8"/>
<g>
	<linearGradient id="SVGID_1_" gradientUnits="userSpaceOnUse" x1="9.594" y1="23.572" x2="30.6" y2="23.572">
		<stop  offset="0" style="stop-color:#FF1528"/>
		<stop  offset="1" style="stop-color:#FF9115"/>
	</linearGradient>
	<path class="st3" d="M24.7,29.5h-12c-1.7,0-3.1-1.4-3.1-3.1v-8.8h15.1c3.3,0,5.9,2.7,5.9,5.9v0C30.6,26.8,27.9,29.5,24.7,29.5z"/>
	<linearGradient id="SVGID_2_" gradientUnits="userSpaceOnUse" x1="9.594" y1="13.1705" x2="27.2119" y2="13.1705">
		<stop  offset="0" style="stop-color:#000CBF"/>
		<stop  offset="1" style="stop-color:#2A55FF"/>
	</linearGradient>
	<path class="st4" d="M21.3,19.1H9.6v-8.8c0-1.7,1.4-3.1,3.1-3.1h8.6c3.3,0,5.9,2.7,5.9,5.9v0C27.2,16.4,24.6,19.1,21.3,19.1z"/>
</g>
</svg>
